<svg version="1.1" id="Layer_1" xmlns="http://www.w3.org/2000/svg" xmlns:xlink="http://www.w3.org/1999/xlink" x="0px" y="0px"
	 width="139.3px" height="11.9px" viewBox="27 37.1 139.3 11.9" style="enable-background:new 27 37.1 139.3 11.9;"
	 xml:space="preserve">
<path id="logo.svg" style="fill:#26272D;" d="M37.3,48.7V37.4h-2.7l0.1,7.4h0l-4.5-7.4H27v11.3h2.7l-0.1-7.4h0.1l4.6,7.4H37.3
	L37.3,48.7z M47.5,48.7v-2.3h-5.3v-2.4H47v-2.2h-4.7v-2.1h5v-2.3h-7.6v11.3H47.5L47.5,48.7z M64.6,37.4h-2.8L59.9,45h0l-2-7.5H55
	L53,45h0l-1.8-7.5h-2.9l3.2,11.3h2.7l2.2-7.7h0l2.2,7.7h2.7L64.6,37.4z M66,48.7h1.6v-5h1.8c0.6,0,1.1-0.1,1.6-0.2
	c0.5-0.1,0.9-0.3,1.3-0.6c0.4-0.3,0.7-0.6,0.9-1c0.2-0.5,0.3-1,0.3-1.5c0-0.5-0.1-1-0.3-1.4c-0.2-0.4-0.5-0.7-0.8-1
	c-0.4-0.3-0.8-0.5-1.3-0.6c-0.5-0.1-1.1-0.2-1.7-0.2H66L66,48.7L66,48.7z M67.5,38.8h1.7c0.3,0,0.7,0,1,0.1c0.3,0,0.6,0.1,0.8,0.3
	c0.2,0.1,0.4,0.3,0.5,0.6c0.1,0.3,0.2,0.6,0.2,0.9c0,0.3-0.1,0.6-0.2,0.9c-0.1,0.2-0.3,0.4-0.5,0.6c-0.3,0.2-0.5,0.3-0.8,0.3
	c-0.4,0.1-0.7,0.1-1.1,0.1h-1.7L67.5,38.8L67.5,38.8z M77.1,43.7h1.7l2.9,5h1.9l-3.2-5.2c0.7-0.1,1.4-0.4,2-1c0.5-0.5,0.8-1.3,0.8-2
	c0-0.5-0.1-1-0.3-1.5c-0.2-0.4-0.5-0.7-0.9-1c-0.4-0.3-0.8-0.4-1.3-0.5c-0.5-0.1-1-0.2-1.6-0.2h-3.6v11.3h1.6L77.1,43.7L77.1,43.7z
	 M77.1,38.8H79c0.3,0,0.7,0,1,0.1c0.3,0.1,0.6,0.2,0.8,0.3c0.2,0.1,0.4,0.3,0.6,0.6c0.5,0.8,0.2,1.8-0.5,2.3c0,0,0,0,0,0
	c-0.3,0.2-0.5,0.3-0.8,0.3c-0.3,0.1-0.7,0.1-1,0.1h-1.8C77.1,42.4,77.1,38.8,77.1,38.8z M96.3,40.6c-0.3-0.7-0.7-1.3-1.3-1.9
	c-0.5-0.5-1.2-0.9-1.9-1.2c-1.5-0.6-3.2-0.6-4.8,0c-0.7,0.3-1.4,0.7-1.9,1.2c-0.5,0.5-1,1.2-1.2,1.9c-0.6,1.6-0.6,3.3,0,4.8
	c0.6,1.4,1.7,2.6,3.1,3.1c1.5,0.6,3.2,0.6,4.8,0c0.7-0.3,1.4-0.7,1.9-1.2c0.5-0.5,1-1.2,1.3-1.9C96.9,43.9,96.9,42.2,96.3,40.6
	L96.3,40.6z M94.7,44.8c-0.2,0.5-0.5,1-0.9,1.4c-0.4,0.4-0.8,0.7-1.4,1c-0.6,0.2-1.2,0.4-1.8,0.4c-0.6,0-1.2-0.1-1.8-0.4
	c-0.5-0.2-1-0.6-1.3-1c-0.4-0.4-0.7-0.9-0.9-1.4c-0.2-0.6-0.3-1.2-0.3-1.8c0-0.6,0.1-1.2,0.3-1.8c0.2-0.5,0.5-1,0.9-1.4
	c0.4-0.4,0.8-0.8,1.3-1c1.1-0.5,2.4-0.5,3.6,0c0.5,0.2,1,0.6,1.4,1c0.4,0.4,0.7,0.9,0.9,1.4c0.2,0.6,0.3,1.2,0.3,1.8
	C95,43.7,94.9,44.3,94.7,44.8L94.7,44.8z M99,37.4h-1.8l4.4,11.3h1.5l4.4-11.3h-1.7l-3.4,9.3h0L99,37.4z M110.5,37.4H109v11.3h1.6
	V37.4L110.5,37.4z M113.3,48.7h3.9c0.7,0,1.5-0.1,2.2-0.3c0.7-0.2,1.4-0.6,2-1c0.6-0.5,1.1-1.1,1.4-1.8c0.4-0.8,0.6-1.6,0.5-2.5
	c0-0.9-0.2-1.8-0.5-2.6c-0.3-0.7-0.8-1.3-1.4-1.8c-0.6-0.5-1.3-0.8-2-1c-0.7-0.2-1.4-0.3-2.2-0.3h-3.9V48.7L113.3,48.7z M114.9,38.8
	h2c0.6,0,1.3,0.1,1.9,0.3c0.5,0.2,1.1,0.4,1.5,0.8c0.4,0.4,0.8,0.8,1,1.3c0.2,0.6,0.4,1.2,0.4,1.9c0,0.6-0.1,1.2-0.4,1.8
	c-0.2,0.5-0.6,1-1,1.3c-0.4,0.4-0.9,0.7-1.5,0.8c-0.6,0.2-1.3,0.3-1.9,0.3h-2V38.8L114.9,38.8z M127.1,43.6h5.3v-1.4h-5.3v-3.4h5.7
	v-1.4h-7.3v11.3h7.5v-1.4h-5.9L127.1,43.6L127.1,43.6z M137.2,37.4h-2.1v11.3h1.6v-9.2h0l6,9.2h2V37.4h-1.6v9.1h0L137.2,37.4z
	 M155.9,46.1c-0.3,0.5-0.8,0.9-1.3,1.1c-0.5,0.3-1.1,0.4-1.7,0.4c-0.6,0-1.2-0.1-1.8-0.4c-0.5-0.2-1-0.6-1.3-1
	c-0.4-0.4-0.7-0.9-0.8-1.4c-0.2-0.6-0.3-1.2-0.3-1.8c0-0.6,0.1-1.2,0.3-1.8c0.2-0.5,0.5-1,0.9-1.4c0.4-0.4,0.8-0.8,1.4-1
	c0.6-0.2,1.2-0.4,1.8-0.4c0.6,0,1.1,0.1,1.6,0.4c0.5,0.2,0.9,0.5,1.2,1l1.2-1c-0.2-0.3-0.5-0.5-0.8-0.8c-0.3-0.2-0.6-0.4-1-0.6
	c-0.4-0.2-0.7-0.3-1.1-0.3c-0.4-0.1-0.8-0.1-1.2-0.1c-0.8,0-1.6,0.1-2.4,0.4c-0.7,0.3-1.4,0.7-1.9,1.2c-0.5,0.5-1,1.2-1.3,1.9
	c-0.6,1.6-0.6,3.3,0,4.8c0.3,0.7,0.7,1.3,1.2,1.9c0.5,0.5,1.2,1,1.9,1.2c0.8,0.3,1.6,0.4,2.4,0.4c0.9,0,1.8-0.2,2.6-0.6
	c0.7-0.4,1.3-0.9,1.7-1.5L155.9,46.1z M160.4,43.6h5.3v-1.4h-5.3v-3.4h5.7v-1.4h-7.3v11.3h7.5v-1.4h-5.9L160.4,43.6L160.4,43.6z"/>
</svg>
